<svg fill="none"
  xmlns="http://www.w3.org/2000/svg" viewBox="0 0 792 109">
  <path d="M753.125 50.0487C753.524 49.3846 753.922 48.7205 754.719 47.5251C748.078 49.119 745.023 45.9313 742.898 41.017C742.234 39.2903 742.234 37.6965 743.43 36.3683C749.273 29.0632 756.047 22.6878 763.086 16.5781C767.071 12.992 771.055 9.53866 775.04 6.08534C775.97 5.28842 775.306 4.88996 774.907 4.22586C778.36 3.96023 781.282 4.88996 783.673 7.1479C784.736 8.21046 785.931 9.67148 783.142 10.0699C781.681 10.3356 781.415 11.7966 780.618 12.5935C774.641 18.5704 768.797 24.4145 762.954 30.3914C762.289 31.0555 761.758 31.9852 760.961 32.915C764.946 32.3837 773.446 26.8052 773.712 24.5473C775.704 25.0786 777.298 24.1488 778.759 23.2191C780.751 22.0237 782.876 23.0863 783.009 25.477C783.009 26.9381 783.142 28.1334 784.47 29.196C785.267 29.8601 785.134 31.5868 784.071 31.4539C780.751 31.0555 779.29 33.5791 777.962 35.4385C771.719 44.2046 763.75 51.6426 758.305 60.9399C754.453 67.5809 750.867 74.2219 749.406 81.7927C748.742 85.1132 749.805 88.4337 752.328 90.5588C754.586 92.5511 757.242 91.2229 759.633 90.2931C772.251 85.246 782.212 70.503 782.079 57.0882C782.079 56.1584 781.814 55.2287 781.548 54.299C781.282 53.7677 780.485 53.2364 781.017 52.5723C781.548 51.7754 782.478 52.1738 783.275 52.4395C791.111 54.9631 793.369 61.7369 791.243 70.7686C789.251 79.1363 783.673 85.1132 777.165 90.1603C773.048 93.348 769.063 96.4029 764.016 97.8639C756.446 100.255 750.602 97.4654 745.82 91.6213C739.578 84.1834 739.179 76.0814 743.43 67.4481C746.351 61.4712 749.406 55.4943 753.125 50.0487Z" fill="#0B333C"></path>
  <path d="M688.758 83.3865C688.492 86.9726 689.024 90.426 689.156 94.809C692.61 91.6213 694.203 88.3008 695.664 85.1132C702.305 70.9014 707.485 56.1584 713.462 41.6811C716.118 35.0401 719.04 28.6647 720.767 21.7581C721.165 20.2971 721.431 18.8361 721.564 17.375C721.696 15.6484 722.095 14.5858 724.087 14.3202C725.681 14.0545 725.814 12.7263 725.681 11.3981C725.415 9.93712 726.079 9.67148 727.407 9.40584C735.376 8.07764 739.627 14.0545 737.236 21.094C734.314 29.7273 731.126 38.2278 729.134 46.9939C725.947 60.6743 723.025 74.3548 725.415 88.4337C725.548 89.0978 725.681 89.7619 725.814 90.426C726.079 91.6213 727.142 92.8167 725.947 94.0121C724.751 95.2075 723.29 94.6762 721.829 94.2777C717.048 92.9495 713.86 88.0352 713.462 81.9255C713.462 79.5347 713.196 77.0111 713.063 73.9563C710.54 79.2691 708.415 84.1834 706.024 88.8321C704.032 92.8167 702.172 96.8013 698.985 99.989C692.344 106.364 681.32 103.309 678.93 94.4106C677.07 87.9024 677.734 81.1286 678.531 74.6204C679.992 60.6743 683.312 47.2595 687.828 34.1103C690.086 27.3365 692.211 20.4299 694.203 13.5233C694.735 11.9294 695.266 10.4684 694.203 8.60892C693.406 7.01508 695.266 7.1479 696.196 7.28072C701.508 7.54636 703.899 10.8669 702.969 16.9766C701.641 26.0083 698.586 34.5088 696.196 43.1421C692.477 56.2913 689.555 69.7061 688.758 83.3865Z" fill="#0B333C"></path>
  <path d="M658.642 42.2124C663.158 36.1026 663.29 29.196 663.954 22.2894C656.517 29.196 652.665 37.8293 648.282 46.0641C643.235 55.6272 639.782 65.7215 637.657 76.2142C636.86 80.066 636.727 84.1834 636.86 88.168C637.126 91.887 639.251 94.6762 643.368 96.0044C646.821 97.3326 649.345 95.0747 651.204 93.2152C661.032 83.6522 668.736 73.0266 672.455 60.5415C672.588 59.8774 672.588 59.2133 672.588 58.682C672.588 57.3538 672.189 55.8928 674.049 55.4943C675.908 54.8302 676.705 56.2913 677.767 57.4866C684.01 64.5261 681.088 71.5655 677.236 78.4722C672.853 86.4414 667.142 93.8793 659.97 99.8562C655.853 103.309 649.212 104.372 642.969 102.38C627.828 97.3326 622.914 89.629 625.438 76.4799C627.961 62.6666 633.008 49.7831 639.782 37.1652C642.969 31.0555 646.423 25.2114 650.806 19.633C652.267 17.6407 655.587 16.7109 655.189 13.7889C655.189 13.6561 656.118 13.2576 656.65 13.2576C662.095 12.992 667.541 13.2576 672.588 15.3827C675.111 16.4453 676.439 18.172 676.306 20.5627C675.908 28.6647 675.111 36.7667 670.595 44.0718C669.4 46.0641 667.673 47.2595 665.15 46.9939C662.493 46.5954 659.837 45.7985 657.978 43.939C657.181 43.2749 658.243 42.8764 658.642 42.2124Z" fill="#0B333C"></path>
  <path d="M501.395 97.1998C500.864 96.0044 500.864 94.5434 499.536 93.348C498.739 96.0044 497.942 98.3952 498.341 100.919C498.739 103.708 497.411 104.372 495.02 103.708C489.708 102.114 487.051 97.9967 488.114 92.6839C488.645 89.8947 489.043 86.9726 490.372 84.4491C491.833 81.527 489.973 78.4722 491.169 75.5501C492.895 76.7455 493.426 75.2845 493.825 74.2219C495.552 70.1045 497.411 65.9871 499.005 61.7369C502.192 52.9708 506.177 44.4703 510.161 35.9698C511.755 32.5165 513.482 28.9304 515.341 25.0786C513.216 25.477 512.286 26.4068 511.357 27.3365C506.442 32.5165 500.731 36.8996 497.411 43.4077C495.95 46.3298 493.559 45.6657 491.301 44.0718C489.575 42.7436 487.848 41.5482 489.708 38.6262C497.013 27.735 505.911 18.5704 517.599 12.3279C518.529 11.7966 519.458 11.531 520.388 11.1325C521.584 10.6012 522.779 10.2028 521.318 8.60892C520.654 7.67918 521.052 6.61662 522.248 6.88226C532.342 9.27302 543.897 7.54636 551.334 17.2422C553.858 20.4299 554.256 26.9381 552.397 30.5242C548.545 37.9621 543.233 44.0718 537.389 49.7831C536.857 50.3144 536.592 50.8456 535.928 51.6426C539.912 52.4395 543.631 53.6349 546.951 55.4943C555.585 60.4087 558.639 69.9717 554.124 78.605C548.944 88.4337 541.24 95.8716 530.881 99.7234C524.904 102.114 518.662 104.903 511.755 104.505C506.442 104.239 503.388 102.247 501.395 97.1998ZM546.951 62.1353C544.959 58.4164 540.975 58.5492 537.389 58.2836C535.396 58.2836 533.67 58.8148 531.943 59.3461C525.701 60.94 520.521 64.6589 515.076 67.7138C509.099 71.1671 504.583 75.683 502.856 82.5896C501.927 86.1757 499.934 89.629 504.185 92.4183L504.317 92.5511C505.114 96.6685 508.435 95.7388 510.825 95.3403C517.732 94.0121 523.974 90.9572 530.084 87.3711C535.928 83.9178 541.24 80.066 544.959 74.3548C547.483 70.6358 549.209 66.3856 546.951 62.1353ZM519.99 42.2123C518.263 45.9313 515.74 49.2518 514.677 53.7677C522.646 47.5251 530.084 41.2826 536.459 33.9775C539.647 30.2586 542.701 26.4068 544.561 21.8909C545.756 19.2345 545.49 17.2422 542.17 16.5781C539.115 15.7812 536.193 15.5156 533.139 16.3125C532.209 16.4453 531.545 16.7109 531.279 17.6407C528.623 26.4068 523.709 33.9775 519.99 42.2123Z" fill="#0B333C"></path>
  <path d="M457.397 77.8081C456.069 79.0034 454.077 79.5347 453.014 81.527C455.67 82.3239 458.061 82.988 460.452 83.5193C468.952 85.3788 477.319 87.7696 485.554 90.6916C488.476 91.7542 491.796 99.0592 490.734 101.981C490.203 103.575 489.007 103.841 487.812 103.177C479.71 98.9264 471.077 96.6685 462.311 94.9418C456.733 93.7465 451.022 93.0824 445.443 91.887C444.248 91.6213 443.717 92.4183 443.584 93.4808C443.186 95.2075 442.787 96.9341 442.654 98.6608C442.256 101.052 440.795 101.583 438.803 101.184C434.552 100.122 432.427 96.5357 430.302 93.2152C429.771 92.4183 430.435 91.7542 430.966 90.9572C432.427 88.9649 433.623 86.9726 430.834 84.9803C430.037 84.4491 429.638 83.5193 430.701 82.988C434.818 80.8629 434.818 76.6127 435.748 73.0266C439.467 58.0179 444.381 43.4077 449.428 28.6647C449.826 27.4693 450.225 26.1411 450.756 24.5473C448.365 25.7427 448.1 27.8678 447.17 29.7273C445.178 33.4462 443.451 34.1103 439.732 31.8524C438.139 31.0555 434.552 30.7898 436.146 28.0006C438.006 24.6801 439.068 20.9612 441.99 18.172C445.975 14.453 449.959 10.8669 455.006 8.60892C457.795 7.41354 458.327 4.49151 456.334 2.10075C456.069 1.56947 455.538 1.171 455.936 0.506906C456.334 -0.157193 456.998 -0.0243748 457.53 0.108451C461.116 0.905368 464.436 2.10075 466.561 5.42124C467.358 6.88226 468.952 6.61662 470.147 6.74944C477.718 8.07764 484.757 10.2028 490.07 16.1797C495.648 22.2894 496.976 29.196 494.054 36.8996C490.335 46.4626 483.296 53.7677 476.39 60.8071C470.413 66.9168 463.905 72.3625 457.397 77.8081ZM450.756 63.5963C450.49 64.5261 450.092 65.323 450.623 66.3856C451.155 66.1199 451.686 65.8543 451.951 65.5886C460.319 58.4164 468.686 51.2441 475.593 42.7436C479.71 37.6965 483.96 32.7821 485.156 26.0083C486.085 20.9612 484.491 17.6407 480.109 15.7812C476.522 14.1874 472.671 13.7889 468.686 14.5858C467.757 14.8515 466.96 15.2499 466.561 16.3125C460.983 31.9852 455.537 47.658 450.756 63.5963Z" fill="#0B333C"></path>
  <path d="M434.099 11.7966C435.826 13.7889 436.623 16.1797 436.49 19.1017C434.497 27.3365 432.372 35.7042 430.513 44.0718C426.927 60.2758 424.005 76.4799 422.677 93.0824C422.411 96.27 421.88 99.4577 421.481 102.645C421.216 104.239 420.153 104.771 418.56 104.903C414.575 105.036 411.255 101.583 411.387 97.7311C411.786 90.1603 412.848 82.7224 413.911 75.2845C414.177 73.425 413.645 73.0266 411.786 73.5578C405.278 75.683 399.434 79.4019 393.059 81.9255C392.262 82.1911 392.129 83.1209 391.863 83.785C390.137 87.6367 388.543 91.6213 386.949 95.6059C385.621 98.528 383.23 99.0592 380.441 98.1295C377.785 97.3326 375.527 95.4731 373.535 93.348C373.136 92.8167 372.738 92.1526 373.269 91.4885C373.668 90.8244 374.332 90.9572 374.863 91.2229C375.925 91.6213 376.59 91.3557 376.988 90.2931C379.246 84.7147 381.504 79.2691 383.363 73.425C384.559 69.8389 386.949 66.2527 388.676 62.5338C393.324 52.7051 399.035 43.5405 404.614 34.376C409.528 26.5396 414.841 19.1017 418.825 10.8669C419.356 9.80429 420.286 8.87456 419.755 7.41354C419.489 6.74944 420.153 6.35098 420.817 6.21816C425.2 5.02279 429.849 4.75714 432.372 10.0699C432.771 10.734 433.568 11.1325 434.099 11.7966ZM420.021 40.7513C420.817 36.6339 422.278 32.6493 422.544 27.735C412.583 40.3529 405.543 53.7677 398.504 67.8466C399.434 67.7138 399.7 67.7138 399.965 67.5809C405.145 66.3856 409.926 63.1979 415.372 62.7994C416.036 62.7994 416.036 62.1353 416.036 61.604C417.364 54.6974 418.825 47.658 420.021 40.7513Z" fill="#0B333C"></path>
  <path d="M326.036 97.1998C325.505 96.0044 325.505 94.5434 324.177 93.348C323.38 96.0044 322.583 98.3952 322.981 100.919C323.38 103.708 322.052 104.372 319.661 103.708C314.348 102.114 311.692 97.9967 312.755 92.6839C313.286 89.8947 313.684 86.9726 315.013 84.4491C316.473 81.527 314.614 78.4722 315.809 75.5501C317.536 76.7455 318.067 75.2845 318.466 74.2219C320.192 70.1045 322.052 65.9871 323.646 61.7369C326.833 52.9708 330.818 44.4703 334.802 35.9698C336.396 32.5165 338.123 28.9304 339.982 25.0786C337.857 25.477 336.927 26.4068 335.997 27.3365C331.083 32.5165 325.372 36.8996 322.052 43.4077C320.591 46.3298 318.2 45.6657 315.942 44.0718C314.216 42.7436 312.489 41.5482 314.348 38.6262C321.653 27.735 330.552 18.5704 342.24 12.3279C343.17 11.7966 344.099 11.531 345.029 11.1325C346.224 10.6012 347.42 10.2028 345.959 8.60892C345.295 7.67918 345.693 6.61662 346.888 6.88226C356.982 9.27302 368.538 7.54636 375.975 17.2422C378.499 20.4299 378.897 26.9381 377.038 30.5242C373.186 37.9621 367.873 44.0718 362.03 49.7831C361.498 50.3144 361.233 50.8456 360.569 51.6426C364.553 52.4395 368.272 53.6349 371.592 55.4943C380.225 60.4087 383.28 69.9717 378.764 78.605C373.585 88.4337 365.881 95.8716 355.521 99.7234C349.545 102.114 343.302 104.903 336.396 104.505C331.083 104.239 328.029 102.247 326.036 97.1998ZM371.592 62.1353C369.6 58.4164 365.616 58.5492 362.03 58.2836C360.037 58.2836 358.311 58.8148 356.584 59.3461C350.342 60.94 345.162 64.6589 339.716 67.7138C333.74 71.1671 329.224 75.683 327.497 82.5896C326.568 86.1757 324.575 89.629 328.825 92.4183L328.958 92.5511C329.755 96.6685 333.076 95.7388 335.466 95.3403C342.373 94.0121 348.615 90.9572 354.725 87.3711C360.569 83.9178 365.881 80.066 369.6 74.3548C372.124 70.6358 373.85 66.3856 371.592 62.1353ZM344.631 42.2123C342.904 45.9313 340.38 49.2518 339.318 53.7677C347.287 47.5251 354.725 41.2826 361.1 33.9775C364.287 30.2586 367.342 26.4068 369.202 21.8909C370.397 19.2345 370.131 17.2422 366.811 16.5781C363.756 15.7812 360.834 15.5156 357.779 16.3125C356.85 16.4453 356.186 16.7109 355.92 17.6407C353.264 26.4068 348.349 33.9775 344.631 42.2123Z" fill="#0B333C"></path>
  <path d="M232.468 26.4068C232.734 25.6099 232.999 24.8129 233.531 22.9535C230.21 26.4068 227.023 28.3991 225.827 32.3837C225.429 33.4462 224.366 33.9775 223.304 33.8447C220.382 33.5791 217.858 32.3837 215.999 30.1257C215.335 29.3288 215.468 28.3991 215.999 27.6022C223.569 18.3048 231.804 9.80429 244.156 7.28072C260.891 3.82741 273.641 13.9217 274.305 30.9227C274.837 44.7359 270.454 56.9554 261.953 67.7138C252.656 79.5347 241.898 89.7619 230.21 99.0593C227.421 101.317 224.366 103.177 220.78 104.239C218.39 105.036 216.53 104.372 214.671 102.645C212.147 100.255 211.35 97.067 210.421 94.0121C210.155 93.348 210.421 92.5511 210.686 91.887C215.202 81.3942 216.929 70.1045 220.78 59.4789C224.765 48.4549 228.616 37.4308 232.468 26.4068ZM228.351 70.6358C226.624 76.4799 225.296 82.3239 223.437 88.9649C224.765 88.168 225.296 87.9024 225.695 87.5039C237.117 78.3393 247.476 68.1122 256.109 56.2913C262.75 47.1267 266.735 37.0324 266.204 25.3442C265.805 19.1017 264.211 16.1797 259.961 14.8515C255.711 13.6561 251.461 14.1874 247.211 15.2499C246.679 15.3827 246.281 15.7812 246.414 16.4453C247.476 20.4299 245.086 23.6176 243.89 27.0709C238.578 41.5482 232.867 55.8928 228.351 70.6358Z" fill="#0B333C"></path>
  <path d="M185.68 42.7436C185.813 40.7513 186.61 38.6262 185.282 36.5011C183.29 45.4 181.297 54.299 179.305 63.1979C176.649 75.5501 174.258 87.9024 173.063 100.52C172.93 102.247 172.133 103.177 170.274 102.911C163.5 101.716 160.977 99.7234 162.039 92.8167C164.031 79.6675 166.555 66.6512 169.477 53.6349C171.735 43.4077 174.391 33.1806 176.915 22.9535C177.446 21.094 177.711 19.5001 176.782 17.6407C175.852 15.6484 176.516 14.453 178.774 14.0545C185.415 12.8592 193.118 14.7186 195.11 19.2345C196.571 22.4222 196.837 25.7427 196.704 29.0632C196.439 42.2123 195.774 55.3615 195.376 68.5107C195.243 73.9563 195.376 79.2691 195.774 84.5819C198.298 73.425 200.821 62.1353 203.478 50.9785C206.931 36.3683 211.845 22.4222 218.088 8.87456C218.752 7.54636 219.283 6.21817 216.892 6.08534C215.963 6.08534 216.095 5.28842 215.963 4.62432C215.83 3.69458 216.228 3.16331 217.158 3.03048C220.877 2.36638 224.463 1.56947 228.315 2.23357C230.971 2.76485 231.901 4.62432 230.705 7.1479C224.596 20.8283 218.486 34.5088 215.033 48.9862C213.572 55.0959 212.377 61.0728 210.916 67.1825C208.79 76.3471 206.665 85.5116 204.275 94.5434C203.478 97.7311 200.025 99.3249 196.97 98.2623C194.181 97.3326 191.524 96.1372 188.735 95.2075C187.805 94.809 187.407 94.2777 187.009 93.348C183.954 86.3085 183.954 78.8706 184.219 71.4327C184.618 61.8697 185.282 52.3067 185.68 42.7436Z" fill="#0B333C"></path>
  <path d="M161.851 11.7966C163.578 13.7889 164.375 16.1797 164.242 19.1017C162.25 27.3365 160.125 35.7042 158.265 44.0718C154.679 60.2758 151.757 76.4799 150.429 93.0824C150.163 96.27 149.632 99.4577 149.234 102.645C148.968 104.239 147.906 104.771 146.312 104.903C142.327 105.036 139.007 101.583 139.14 97.7311C139.538 90.1603 140.601 82.7224 141.663 75.2845C141.929 73.425 141.398 73.0266 139.538 73.5578C133.03 75.683 127.186 79.4019 120.811 81.9255C120.014 82.1911 119.881 83.1209 119.616 83.785C117.889 87.6367 116.295 91.6213 114.701 95.6059C113.373 98.528 110.983 99.0592 108.193 98.1295C105.537 97.3326 103.279 95.4731 101.287 93.348C100.889 92.8167 100.49 92.1526 101.021 91.4885C101.42 90.8244 102.084 90.9572 102.615 91.2229C103.678 91.6213 104.342 91.3557 104.74 90.2931C106.998 84.7147 109.256 79.2691 111.115 73.425C112.311 69.8389 114.701 66.2527 116.428 62.5338C121.077 52.7051 126.788 43.5405 132.366 34.376C137.28 26.5396 142.593 19.1017 146.577 10.8669C147.109 9.80429 148.038 8.87456 147.507 7.41354C147.241 6.74944 147.906 6.35098 148.57 6.21816C152.953 5.02279 157.601 4.75714 160.125 10.0699C160.523 10.734 161.32 11.1325 161.851 11.7966ZM147.773 40.7513C148.57 36.6339 150.031 32.6493 150.296 27.735C140.335 40.3529 133.296 53.7677 126.256 67.8466C127.186 67.7138 127.452 67.7138 127.717 67.5809C132.897 66.3856 137.679 63.1979 143.124 62.7994C143.788 62.7994 143.788 62.1353 143.788 61.604C145.116 54.6974 146.577 47.658 147.773 40.7513Z" fill="#0B333C"></path>
  <path d="M78.2734 77.8081C76.9453 79.0034 74.953 79.5347 73.8905 81.527C76.5468 82.3239 78.9375 82.988 81.3282 83.5193C89.8285 85.3788 98.1959 87.7696 106.431 90.6916C109.352 91.7542 112.673 99.0592 111.61 101.981C111.079 103.575 109.884 103.841 108.688 103.177C100.587 98.9264 91.9535 96.6685 83.1876 94.9418C77.6094 93.7465 71.8982 93.0824 66.32 91.887C65.1246 91.6213 64.5933 92.4183 64.4605 93.4808C64.0621 95.2075 63.6636 96.9341 63.5308 98.6608C63.1324 101.052 61.6714 101.583 59.6791 101.184C55.429 100.122 53.3039 96.5357 51.1789 93.2152C50.6476 92.4183 51.3117 91.7542 51.843 90.9572C53.3039 88.9649 54.4993 86.9726 51.7101 84.9803C50.9132 84.4491 50.5148 83.5193 51.5773 82.988C55.6946 80.8629 55.6946 76.6127 56.6244 73.0266C60.3432 58.0179 65.2574 43.4077 70.3045 28.6647C70.7029 27.4693 71.1013 26.1411 71.6326 24.5473C69.2419 25.7427 68.9763 27.8678 68.0466 29.7273C66.0543 33.4462 64.3277 34.1103 60.6088 31.8524C59.0151 31.0555 55.429 30.7898 57.0228 28.0006C58.8822 24.6801 59.9448 20.9612 62.8667 18.172C66.8512 14.453 70.8357 10.8669 75.8827 8.60892C78.6719 7.41354 79.2031 4.49151 77.2109 2.10075C76.9453 1.56947 76.414 1.171 76.8125 0.506906C77.2109 -0.157193 77.875 -0.0243748 78.4062 0.108451C81.9923 0.905368 85.3127 2.10075 87.4378 5.42124C88.2347 6.88226 89.8285 6.61662 91.0238 6.74944C98.5943 8.07764 105.634 10.2028 110.946 16.1797C116.525 22.2894 117.853 29.196 114.931 36.8996C111.212 46.4626 104.173 53.7677 97.2662 60.8071C91.2894 66.9168 84.7814 72.3625 78.2734 77.8081ZM71.6326 63.5963C71.367 64.5261 70.9685 65.323 71.4998 66.3856C72.0311 66.1199 72.5623 65.8543 72.828 65.5886C81.1954 58.4164 89.5628 51.2441 96.4693 42.7436C100.587 37.6965 104.837 32.7821 106.032 26.0083C106.962 20.9612 105.368 17.6407 100.985 15.7812C97.399 14.1874 93.5473 13.7889 89.5628 14.5858C88.6331 14.8515 87.8362 15.2499 87.4378 16.3125C81.8595 31.9852 76.414 47.658 71.6326 63.5963Z" fill="#0B333C"></path>
  <path d="M29.5184 77.4096C31.6435 73.8235 34.0341 70.3702 35.6279 65.8543C33.1044 67.1825 30.9794 68.1122 28.9871 69.3076C26.198 71.1671 23.4088 71.0343 20.8853 69.042C18.229 67.0497 17.5649 63.9948 17.8305 60.8071C17.9634 60.143 18.229 59.6118 19.0259 59.7446C19.9556 59.7446 20.3541 60.2758 19.2915 62.0025C23.276 60.0102 26.3308 58.4164 29.5184 56.8225C34.0341 54.6974 38.6827 52.3067 43.3313 50.4472C47.4486 48.7205 53.691 54.5646 53.1597 59.0805C52.4956 63.5963 50.1049 67.4481 48.5111 71.6984C44.1282 82.7224 41.0734 94.0121 39.0812 105.567C38.6827 107.825 37.4874 109.685 34.9639 108.755C32.5732 107.825 28.9871 107.56 29.5184 103.442C29.784 100.122 30.1825 96.8013 30.7137 93.348C28.8543 93.7465 28.1902 94.9418 27.3933 95.8716C23.5416 99.8562 19.2915 103.177 13.4476 101.317C7.20523 99.3249 3.08792 94.809 1.3613 88.3008C-1.16221 78.8706 0.165956 69.7061 2.55665 60.5415C5.61143 48.5877 10.1272 37.298 16.768 26.9381C21.815 18.9689 26.8621 10.9997 35.2295 5.55406C34.5654 5.28842 34.0341 5.1556 33.5029 4.88996C33.6357 4.75714 33.7685 4.62432 33.9013 4.62432C39.3468 4.09304 44.7923 3.56176 49.9721 6.21816C52.4956 7.54636 53.5582 9.53866 53.2925 12.5935C52.6285 20.9612 51.1675 29.0632 47.4486 36.6339C44.9251 42.0795 41.2062 43.0093 36.8233 39.1575C36.1592 38.4934 35.3623 37.8293 36.1592 36.6339C39.6124 32.118 40.675 26.6724 41.7375 21.3596C42.4016 18.0391 42.8 14.8515 43.3313 10.9997C40.675 12.0622 39.3468 13.7889 37.8858 15.3827C28.0574 25.6099 21.0181 37.4308 16.2367 50.7128C12.3851 61.3384 9.33029 71.964 9.59592 83.3865C9.59592 86.5742 10.26 89.4962 11.0569 92.4183C11.721 95.0747 13.3148 95.6059 15.307 93.8793C21.0181 89.2306 25.6667 83.6521 29.5184 77.4096Z" fill="#0B333C"></path>
  <path d="M554.077 81.8148C553.546 79.7782 554.033 76.5906 555.538 72.2518C557.043 67.913 559.257 62.9101 562.179 57.2431C565.189 51.5762 568.775 45.4664 572.937 38.914C577.187 32.3615 581.791 25.8091 586.75 19.2566C586.041 18.6368 585.333 17.7956 584.625 16.7331C583.916 15.582 583.385 14.4309 583.031 13.2798C582.765 12.1286 582.765 11.0218 583.031 9.95925C583.385 8.8967 584.182 8.0555 585.422 7.43568C587.281 6.63876 590.247 5.88611 594.32 5.17774C598.393 4.38082 602.688 3.76099 607.203 3.31826C611.808 2.78698 616.191 2.43279 620.352 2.2557C624.602 1.99006 627.79 1.90151 629.915 1.99006C632.04 2.16716 633.811 3.00835 635.228 4.51364C636.733 5.93038 637.795 7.52422 638.415 9.29515C639.124 10.9775 639.389 12.5271 639.212 13.9438C639.035 15.272 638.371 15.8476 637.22 15.6705C635.449 15.4049 632.66 15.4049 628.853 15.6705C625.045 15.8476 620.928 16.2018 616.501 16.7331C612.073 17.1758 607.646 17.6628 603.219 18.1941C598.88 18.7254 595.25 19.2124 592.328 19.6551C591.708 21.3375 591.708 22.5329 592.328 23.2412C592.948 23.9496 593.612 24.5252 594.32 24.9679C595.029 25.3221 595.56 25.7648 595.914 26.2961C596.357 26.7388 596.047 27.5358 594.984 28.6869C594.365 29.3952 593.479 30.6349 592.328 32.4058C591.265 34.1767 589.982 36.3461 588.476 38.914C591.752 38.1171 594.984 37.4972 598.172 37.0545C601.36 36.5232 604.281 36.1248 606.938 35.8591C609.683 35.5935 612.073 35.4607 614.11 35.4607C616.146 35.4607 617.696 35.5935 618.758 35.8591C619.998 36.2133 620.928 37.1873 621.548 38.7812C622.167 40.2865 622.522 41.9246 622.61 43.6955C622.699 45.3779 622.477 46.8832 621.946 48.2114C621.503 49.451 620.839 49.938 619.954 49.6724C616.943 49.0526 613.579 48.7869 609.86 48.8755C606.229 48.8755 602.599 49.0968 598.969 49.5396C595.339 49.9823 591.885 50.5136 588.609 51.1334C585.422 51.7532 582.765 52.3288 580.64 52.8601C579.046 55.7821 577.497 58.7927 575.992 61.8918C574.575 64.9024 573.202 67.913 571.874 70.9236C570.635 73.9342 569.528 76.8119 568.554 79.5569C567.668 82.3018 566.96 84.7811 566.429 86.9948C569.262 86.7291 572.627 86.3307 576.523 85.7994C580.419 85.3567 584.315 84.9582 588.211 84.604C592.107 84.2498 595.781 84.0285 599.234 83.9399C602.688 83.7628 605.344 83.8957 607.203 84.3384C609.417 84.8697 611.232 85.9765 612.649 87.6589C614.066 89.4298 615.04 91.1565 615.571 92.8389C616.102 94.6098 616.102 96.0708 615.571 97.2219C615.04 98.4616 613.933 98.8158 612.25 98.2845C611.099 97.9303 609.284 97.7089 606.805 97.6204C604.326 97.5318 601.492 97.5318 598.305 97.6204C595.117 97.7975 591.752 98.0188 588.211 98.2845C584.669 98.5501 581.26 98.86 577.984 99.2142C574.708 99.5684 571.741 99.9226 569.085 100.277C566.429 100.631 564.437 100.941 563.108 101.207C562.134 101.472 561.205 101.074 560.319 100.011C559.522 99.0371 558.858 97.7975 558.327 96.2922C557.884 94.8754 557.663 93.3701 557.663 91.7763C557.663 90.1825 558.017 88.9428 558.725 88.0573C557.663 87.1719 556.689 86.1979 555.803 85.1353C555.007 84.1613 554.431 83.0545 554.077 81.8148Z" fill="#0B333C"></path>
</svg>