<svg width="27" height="27" viewBox="0 0 18 18" fill="none"
  xmlns="http://www.w3.org/2000/svg">
  <path d="M16.8367 9.02812C16.8367 13.3562 13.3281 16.8649 9 16.8649C4.67189 16.8649 1.16327 13.3562 1.16327 9.02812C1.16327 4.70001 4.67189 1.19139 9 1.19139C13.3281 1.19139 16.8367 4.70001 16.8367 9.02812Z" fill="#EFE3AF"/>
  <path d="M9 0C4.03012 0 0 4.03012 0 9C0 13.9699 4.03012 18 9 18C13.9699 18 18 13.9699 18 9C18 4.03012 13.9712 0 9 0ZM11.8888 5.22321C11.5564 5.22049 11.2241 5.2164 10.8932 5.22321C10.742 5.2273 10.5894 5.24364 10.4423 5.27497C10.1577 5.33762 9.99016 5.52557 9.93296 5.80751C9.90981 5.92055 9.89755 6.03904 9.89619 6.15481C9.8921 6.57975 9.89482 7.00469 9.89482 7.42963C9.89482 7.44189 9.89619 7.45551 9.89755 7.47458H9.96973C10.5813 7.47458 11.1942 7.47458 11.8057 7.47458C11.886 7.47458 11.8874 7.47458 11.8779 7.55085C11.8343 7.88453 11.7893 8.21822 11.7471 8.55327C11.7117 8.83248 11.6763 9.11168 11.6423 9.39089C11.63 9.49712 11.6327 9.49712 11.5251 9.49712C11.0062 9.49712 10.4859 9.49712 9.96701 9.49712H9.89482V9.57748C9.89482 11.2337 9.89482 12.8898 9.89482 14.546C9.89482 14.5869 9.89482 14.6277 9.89482 14.6686H7.79192C7.79192 14.6413 7.79464 14.6127 7.79464 14.5855C7.79464 12.9103 7.79464 11.2364 7.79464 9.56114V9.49712H7.72246C7.18856 9.49712 6.65466 9.49712 6.1194 9.49712C6.04585 9.49712 6.04449 9.49712 6.04449 9.42494C6.04449 8.79843 6.04449 8.17055 6.04449 7.54404C6.04449 7.48683 6.0622 7.47185 6.11668 7.47321C6.65057 7.47458 7.18447 7.47321 7.71973 7.47321H7.79464C7.79464 7.45142 7.79464 7.43235 7.79464 7.41329C7.79464 6.89165 7.79192 6.37137 7.79873 5.84973C7.80418 5.43024 7.8859 5.02436 8.0684 4.64437C8.31628 4.12818 8.70581 3.75908 9.23699 3.53844C9.5911 3.39134 9.96156 3.32324 10.3429 3.32869C10.7801 3.3355 11.2173 3.35457 11.6545 3.37091C11.7362 3.37364 11.8166 3.38726 11.8983 3.39134C11.9432 3.39407 11.9582 3.41041 11.9582 3.45536C11.9569 3.7155 11.9582 3.97427 11.9582 4.23441C11.9582 4.54086 11.9582 4.84594 11.9582 5.15239C11.9582 5.20551 11.9433 5.22185 11.8901 5.22185L11.8888 5.22321Z" fill="#FF4400"/>
</svg>
