<svg width="27" height="27" viewBox="0 0 19 18" fill="none"
  xmlns="http://www.w3.org/2000/svg">
  <path d="M17.7714 9.02802C17.7714 13.3403 14.0814 16.836 9.52958 16.836C4.97776 16.836 1.28778 13.3403 1.28778 9.02802C1.28778 4.71577 4.97776 1.22 9.52958 1.22C14.0814 1.22 17.7714 4.71577 17.7714 9.02802Z" fill="#EFE3AF"/>
  <path d="M9.54621 10.6516C8.57716 10.6516 7.78904 9.90499 7.78904 8.98694C7.78904 8.06889 8.57716 7.32225 9.54621 7.32225C10.5153 7.32225 11.3034 8.06889 11.3034 8.98694C11.3034 9.90499 10.5153 10.6516 9.54621 10.6516Z" fill="#FF4400"/>
  <path fill-rule="evenodd" clip-rule="evenodd" d="M4.97846 6.88061C4.97846 5.68012 6.00932 4.70351 7.2765 4.70351H11.7239C12.991 4.70351 14.0219 5.68012 14.0219 6.88061V11.0939C14.0219 12.2944 12.991 13.271 11.7239 13.271H7.2765C6.00932 13.271 4.97846 12.2944 4.97846 11.0939V6.88061ZM11.796 6.21326C11.796 5.87166 12.0883 5.59472 12.4489 5.59472C12.8095 5.59472 13.1018 5.87166 13.1018 6.21326C13.1018 6.55487 12.8095 6.83181 12.4489 6.83181C12.0883 6.83181 11.796 6.55487 11.796 6.21326ZM9.54621 6.38834C8.03371 6.38834 6.80324 7.55405 6.80324 8.98694C6.80324 10.4198 8.03371 11.5855 9.54621 11.5855C11.0587 11.5855 12.2892 10.4198 12.2892 8.98694C12.2892 7.55405 11.0587 6.38834 9.54621 6.38834Z" fill="#FF4400"/>
  <path fill-rule="evenodd" clip-rule="evenodd" d="M18.9979 8.81309C19.1069 13.7826 14.9428 17.8948 9.69729 17.998C4.45174 18.1012 0.111053 14.1564 0.0020906 9.18691C-0.106872 4.21744 4.05715 0.105208 9.3027 0.00198057C14.5483 -0.101247 18.8889 3.84362 18.9979 8.81309ZM7.2765 14.2635H11.7239C13.5686 14.2635 15.0695 12.8415 15.0695 11.0939V6.88061C15.0695 5.13295 13.5686 3.71104 11.7239 3.71104H7.2765C5.43175 3.71104 3.93085 5.13295 3.93085 6.88061V11.0939C3.93085 12.8415 5.43175 14.2635 7.2765 14.2635Z" fill="#FF4400"/>
</svg>
