<svg fill="none"
  xmlns="http://www.w3.org/2000/svg" viewBox="0.5 16 47 60">
  <path fill-rule="evenodd" clip-rule="evenodd" d="M24 75.7981C25.2455 75.7981 47.5 52.2011 47.5 39.3212C47.5 26.4413 36.9786 16 24 16C11.0213 16 0.5 26.4413 0.5 39.3212C0.5 52.2011 22.7545 75.7981 24 75.7981ZM24 50.9857C30.5802 50.9857 35.9146 45.6919 35.9146 39.1617C35.9146 32.6316 30.5802 27.3379 24 27.3379C17.4198 27.3379 12.0855 32.6316 12.0855 39.1617C12.0855 45.6919 17.4198 50.9857 24 50.9857Z" fill="#7EBFA0"></path>
  <path fill-rule="evenodd" clip-rule="evenodd" d="M0.5 39.4C0.5 52.3234 22.5402 76 23.7736 76V51.1039C17.2568 51.1035 11.9739 45.7921 11.9739 39.2399C11.9739 32.6878 17.2568 27.3762 23.7736 27.3761V16C10.9199 16 0.5 26.4765 0.5 39.4Z" fill="#68B18E"></path>
</svg>