<svg width="250"
  xmlns="http://www.w3.org/2000/svg" fill="none" viewBox="23.5 10 204 28">
  <path d="M217.487 22.8566C217.589 22.686 217.692 22.5154 217.897 22.2083C216.187 22.6177 215.4 21.7989 214.853 20.5365C214.682 20.0929 214.682 19.6835 214.989 19.3423C216.495 17.4658 218.239 15.8281 220.053 14.2586C221.079 13.3374 222.105 12.4503 223.131 11.5632C223.371 11.3585 223.2 11.2561 223.097 11.0855C223.987 11.0173 224.739 11.2561 225.355 11.8362C225.629 12.1091 225.937 12.4844 225.218 12.5868C224.842 12.655 224.774 13.0303 224.568 13.235C223.029 14.7704 221.524 16.2716 220.018 17.807C219.847 17.9776 219.71 18.2164 219.505 18.4552C220.531 18.3187 222.721 16.8858 222.789 16.3057C223.303 16.4422 223.713 16.2034 224.089 15.9645C224.603 15.6575 225.15 15.9304 225.184 16.5446C225.184 16.9199 225.218 17.2269 225.56 17.4999C225.766 17.6705 225.731 18.114 225.458 18.0799C224.603 17.9776 224.226 18.6258 223.884 19.1035C222.276 21.3553 220.224 23.266 218.821 25.6543C217.829 27.3602 216.905 29.0662 216.529 31.011C216.358 31.8639 216.632 32.7169 217.282 33.2628C217.863 33.7746 218.547 33.4334 219.163 33.1946C222.413 31.8981 224.979 28.1109 224.945 24.6649C224.945 24.426 224.876 24.1872 224.808 23.9484C224.739 23.8119 224.534 23.6754 224.671 23.5048C224.808 23.3001 225.047 23.4025 225.253 23.4707C227.271 24.1189 227.853 25.859 227.305 28.1791C226.792 30.3286 225.355 31.8639 223.679 33.1605C222.618 33.9793 221.592 34.764 220.292 35.1393C218.342 35.7535 216.837 35.037 215.605 33.5358C213.997 31.6251 213.895 29.5438 214.989 27.3261C215.742 25.7908 216.529 24.2554 217.487 22.8566Z" fill="#FFF9DE"></path>
  <path d="M200.907 31.4204C200.839 32.3416 200.976 33.2287 201.01 34.3546C201.899 33.5358 202.31 32.6828 202.686 31.8639C204.397 28.2132 205.731 24.426 207.27 20.7071C207.955 19.0011 208.707 17.3634 209.152 15.5892C209.255 15.2139 209.323 14.8386 209.357 14.4633C209.391 14.0198 209.494 13.7468 210.007 13.6786C210.418 13.6103 210.452 13.2692 210.418 12.928C210.349 12.5527 210.52 12.4844 210.863 12.4162C212.915 12.075 214.01 13.6103 213.394 15.4186C212.641 17.6364 211.82 19.82 211.307 22.0718C210.486 25.5861 209.734 29.1003 210.349 32.7169C210.384 32.8875 210.418 33.0581 210.452 33.2287C210.52 33.5358 210.794 33.8428 210.486 34.1499C210.178 34.457 209.802 34.3205 209.426 34.2181C208.194 33.8769 207.373 32.6145 207.27 31.0451C207.27 30.4309 207.202 29.7827 207.168 28.9979C206.518 30.3627 205.97 31.6251 205.355 32.8193C204.842 33.8428 204.363 34.8664 203.542 35.6852C201.831 37.323 198.992 36.5382 198.376 34.2523C197.897 32.5804 198.068 30.8404 198.273 29.1685C198.649 25.5861 199.505 22.1401 200.668 18.7623C201.249 17.0222 201.797 15.248 202.31 13.4739C202.447 13.0644 202.584 12.6891 202.31 12.2115C202.105 11.802 202.584 11.8362 202.823 11.8703C204.192 11.9385 204.807 12.7915 204.568 14.361C204.226 16.681 203.439 18.8646 202.823 21.0824C201.865 24.4601 201.113 27.9061 200.907 31.4204Z" fill="#FFF9DE"></path>
  <path d="M193.15 20.8435C194.313 19.2741 194.348 17.4999 194.519 15.7257C192.603 17.4999 191.611 19.7176 190.482 21.833C189.182 24.2895 188.292 26.8826 187.745 29.578C187.54 30.5674 187.505 31.6251 187.54 32.6487C187.608 33.604 188.155 34.3205 189.216 34.6617C190.105 35.0029 190.755 34.4228 191.234 33.9452C193.766 31.4886 195.75 28.7591 196.708 25.5519C196.742 25.3813 196.742 25.2108 196.742 25.0743C196.742 24.7331 196.64 24.3578 197.119 24.2554C197.598 24.0848 197.803 24.4601 198.076 24.7672C199.684 26.5755 198.932 28.3838 197.94 30.158C196.811 32.2051 195.34 34.1158 193.492 35.6511C192.432 36.5382 190.721 36.8112 189.113 36.2994C185.213 35.0029 183.948 33.024 184.598 29.6462C185.248 26.0978 186.548 22.7883 188.292 19.547C189.113 17.9776 190.003 16.4763 191.132 15.0433C191.508 14.5315 192.363 14.2927 192.261 13.5421C192.261 13.508 192.5 13.4056 192.637 13.4056C194.04 13.3374 195.442 13.4056 196.742 13.9515C197.392 14.2245 197.734 14.668 197.7 15.2822C197.598 17.3634 197.392 19.4447 196.229 21.3212C195.921 21.833 195.476 22.1401 194.826 22.0718C194.142 21.9695 193.458 21.7647 192.979 21.2871C192.774 21.1165 193.048 21.0141 193.15 20.8435Z" fill="#FFF9DE"></path>
  <path d="M152.647 34.9688C152.51 34.6617 152.51 34.2864 152.168 33.9793C151.963 34.6617 151.758 35.2758 151.86 35.9241C151.963 36.6406 151.621 36.8112 151.005 36.6406C149.637 36.2312 148.953 35.1735 149.226 33.8087C149.363 33.0922 149.466 32.3416 149.808 31.6933C150.184 30.9427 149.705 30.158 150.013 29.4074C150.458 29.7144 150.595 29.3391 150.697 29.0662C151.142 28.0085 151.621 26.9508 152.032 25.859C152.853 23.6072 153.879 21.4236 154.905 19.24C155.316 18.3529 155.76 17.4317 156.239 16.4422C155.692 16.5446 155.453 16.7834 155.213 17.0222C153.947 18.3529 152.476 19.4788 151.621 21.1506C151.245 21.9012 150.629 21.7306 150.047 21.3212C149.603 20.98 149.158 20.6729 149.637 19.9223C151.518 17.1246 153.81 14.7704 156.821 13.1668C157.06 13.0303 157.3 12.9621 157.539 12.8597C157.847 12.7232 158.155 12.6209 157.779 12.2115C157.608 11.9726 157.71 11.6997 158.018 11.7679C160.618 12.3821 163.595 11.9385 165.51 14.4292C166.16 15.248 166.263 16.9199 165.784 17.8411C164.792 19.7517 163.424 21.3212 161.918 22.7883C161.781 22.9248 161.713 23.0613 161.542 23.266C162.568 23.4707 163.526 23.7778 164.381 24.2554C166.605 25.5178 167.392 27.9744 166.229 30.1921C164.895 32.7169 162.91 34.6276 160.242 35.617C158.703 36.2311 157.095 36.9476 155.316 36.8453C153.947 36.7771 153.16 36.2653 152.647 34.9688ZM164.381 25.9614C163.868 25.006 162.842 25.0402 161.918 24.9719C161.405 24.9719 160.96 25.1084 160.516 25.2449C158.908 25.6543 157.574 26.6096 156.171 27.3944C154.632 28.2815 153.468 29.4415 153.024 31.2157C152.784 32.1369 152.271 33.024 153.366 33.7405L153.4 33.7746C153.605 34.8323 154.46 34.5934 155.076 34.4911C156.855 34.1499 158.463 33.3652 160.037 32.444C161.542 31.5569 162.91 30.5674 163.868 29.1003C164.518 28.145 164.963 27.0532 164.381 25.9614ZM157.437 20.8435C156.992 21.7989 156.342 22.6518 156.068 23.8119C158.121 22.2083 160.037 20.6047 161.679 18.7282C162.5 17.7728 163.287 16.7834 163.766 15.6234C164.074 14.941 164.005 14.4292 163.15 14.2586C162.363 14.0539 161.61 13.9856 160.824 14.1904C160.584 14.2245 160.413 14.2927 160.345 14.5315C159.66 16.7834 158.395 18.7282 157.437 20.8435Z" fill="#FFF9DE"></path>
  <path d="M141.314 29.9874C140.972 30.2945 140.459 30.4309 140.185 30.9427C140.87 31.1474 141.485 31.318 142.101 31.4545C144.291 31.9322 146.446 32.5463 148.567 33.2969C149.32 33.5699 150.175 35.4464 149.901 36.197C149.764 36.6065 149.456 36.6747 149.149 36.5041C147.062 35.4123 144.838 34.8323 142.58 34.3887C141.143 34.0817 139.672 33.9111 138.235 33.604C137.928 33.5358 137.791 33.7405 137.756 34.0134C137.654 34.457 137.551 34.9005 137.517 35.3441C137.414 35.9582 137.038 36.0947 136.525 35.9923C135.43 35.7194 134.883 34.7982 134.335 33.9452C134.199 33.7405 134.37 33.5699 134.507 33.3652C134.883 32.8534 135.191 32.3416 134.472 31.8298C134.267 31.6933 134.164 31.4545 134.438 31.318C135.499 30.7721 135.499 29.6803 135.738 28.7591C136.696 24.9037 137.962 21.1506 139.262 17.3634C139.364 17.0563 139.467 16.7152 139.604 16.3057C138.988 16.6128 138.92 17.1587 138.68 17.6364C138.167 18.5917 137.722 18.7623 136.764 18.1823C136.354 17.9776 135.43 17.9093 135.841 17.1928C136.32 16.3398 136.593 15.3845 137.346 14.668C138.372 13.7127 139.399 12.7915 140.699 12.2115C141.417 11.9044 141.554 11.1538 141.041 10.5396C140.972 10.4032 140.835 10.3008 140.938 10.1302C141.041 9.95962 141.212 9.99374 141.349 10.0279C142.272 10.2326 143.128 10.5396 143.675 11.3926C143.88 11.7679 144.291 11.6997 144.599 11.7338C146.549 12.075 148.362 12.6209 149.73 14.1562C151.167 15.7257 151.509 17.4999 150.756 19.4788C149.799 21.9353 147.985 23.8119 146.206 25.6202C144.667 27.1896 142.991 28.5885 141.314 29.9874ZM139.604 26.3367C139.535 26.5755 139.433 26.7802 139.57 27.0532C139.706 26.9849 139.843 26.9167 139.912 26.8485C142.067 25.006 144.222 23.1636 146.001 20.98C147.062 19.6835 148.156 18.4211 148.464 16.681C148.704 15.3845 148.293 14.5315 147.164 14.0539C146.241 13.6445 145.249 13.5421 144.222 13.7468C143.983 13.8151 143.778 13.9174 143.675 14.1904C142.238 18.2164 140.835 22.2424 139.604 26.3367Z" fill="#FFF9DE"></path>
  <path d="M135.313 13.0303C135.758 13.5421 135.963 14.1562 135.929 14.9069C135.416 17.0222 134.869 19.1717 134.39 21.3212C133.466 25.4837 132.713 29.6462 132.371 33.9111C132.303 34.7299 132.166 35.5488 132.063 36.3676C131.995 36.777 131.721 36.9135 131.311 36.9476C130.284 36.9818 129.429 36.0947 129.463 35.1052C129.566 33.1605 129.84 31.2498 130.113 29.3391C130.182 28.8615 130.045 28.7591 129.566 28.8956C127.89 29.4415 126.384 30.3968 124.742 31.0451C124.537 31.1133 124.503 31.3521 124.435 31.5227C123.99 32.5122 123.579 33.5358 123.169 34.5593C122.827 35.3099 122.211 35.4464 121.492 35.2076C120.808 35.0029 120.227 34.5252 119.713 33.9793C119.611 33.8428 119.508 33.6722 119.645 33.5016C119.748 33.331 119.919 33.3652 120.056 33.4334C120.329 33.5358 120.5 33.4675 120.603 33.1946C121.185 31.7616 121.766 30.3627 122.245 28.8615C122.553 27.9403 123.169 27.0191 123.613 26.0637C124.811 23.5389 126.282 21.1847 127.719 18.8305C128.984 16.8175 130.353 14.9069 131.379 12.7915C131.516 12.5185 131.756 12.2797 131.619 11.9044C131.55 11.7338 131.721 11.6314 131.892 11.5973C133.021 11.2903 134.219 11.222 134.869 12.5868C134.971 12.7574 135.177 12.8597 135.313 13.0303ZM131.687 20.4682C131.892 19.4105 132.269 18.387 132.337 17.1246C129.771 20.3659 127.958 23.8119 126.145 27.4285C126.384 27.3944 126.453 27.3944 126.521 27.3602C127.856 27.0532 129.087 26.2343 130.49 26.132C130.661 26.132 130.661 25.9614 130.661 25.8249C131.003 24.0507 131.379 22.2424 131.687 20.4682Z" fill="#FFF9DE"></path>
  <path d="M107.479 34.9688C107.342 34.6617 107.342 34.2864 107 33.9793C106.795 34.6617 106.59 35.2758 106.692 35.9241C106.795 36.6406 106.453 36.8112 105.837 36.6406C104.469 36.2312 103.784 35.1735 104.058 33.8087C104.195 33.0922 104.297 32.3416 104.64 31.6933C105.016 30.9427 104.537 30.158 104.845 29.4074C105.29 29.7144 105.426 29.3391 105.529 29.0662C105.974 28.0085 106.453 26.9508 106.863 25.859C107.684 23.6072 108.711 21.4236 109.737 19.24C110.147 18.3529 110.592 17.4317 111.071 16.4422C110.524 16.5446 110.284 16.7834 110.045 17.0222C108.779 18.3529 107.308 19.4788 106.453 21.1506C106.076 21.9012 105.461 21.7306 104.879 21.3212C104.434 20.98 103.99 20.6729 104.469 19.9223C106.35 17.1246 108.642 14.7704 111.653 13.1668C111.892 13.0303 112.132 12.9621 112.371 12.8597C112.679 12.7232 112.987 12.6209 112.611 12.2115C112.44 11.9726 112.542 11.6997 112.85 11.7679C115.45 12.3821 118.426 11.9385 120.342 14.4292C120.992 15.248 121.095 16.9199 120.616 17.8411C119.624 19.7517 118.255 21.3212 116.75 22.7883C116.613 22.9248 116.545 23.0613 116.374 23.266C117.4 23.4707 118.358 23.7778 119.213 24.2554C121.437 25.5178 122.224 27.9744 121.061 30.1921C119.726 32.7169 117.742 34.6276 115.074 35.617C113.534 36.2311 111.926 36.9476 110.147 36.8453C108.779 36.7771 107.992 36.2653 107.479 34.9688ZM119.213 25.9614C118.7 25.006 117.674 25.0402 116.75 24.9719C116.237 24.9719 115.792 25.1084 115.347 25.2449C113.74 25.6543 112.405 26.6096 111.003 27.3944C109.463 28.2815 108.3 29.4415 107.855 31.2157C107.616 32.1369 107.103 33.024 108.197 33.7405L108.232 33.7746C108.437 34.8323 109.292 34.5934 109.908 34.4911C111.687 34.1499 113.295 33.3652 114.868 32.444C116.374 31.5569 117.742 30.5674 118.7 29.1003C119.35 28.145 119.795 27.0532 119.213 25.9614ZM112.268 20.8435C111.824 21.7989 111.174 22.6518 110.9 23.8119C112.953 22.2083 114.868 20.6047 116.511 18.7282C117.332 17.7728 118.118 16.7834 118.597 15.6234C118.905 14.941 118.837 14.4292 117.982 14.2586C117.195 14.0539 116.442 13.9856 115.655 14.1904C115.416 14.2245 115.245 14.2927 115.176 14.5315C114.492 16.7834 113.226 18.7282 112.268 20.8435Z" fill="#FFF9DE"></path>
  <path d="M83.3782 16.7834C83.4466 16.5787 83.515 16.374 83.6518 15.8963C82.7966 16.7834 81.9755 17.2952 81.6676 18.3187C81.565 18.5917 81.2913 18.7282 81.0176 18.6941C80.265 18.6258 79.615 18.3187 79.1361 17.7387C78.965 17.534 78.9992 17.2952 79.1361 17.0905C81.0861 14.7021 83.2071 12.5185 86.3887 11.8703C90.6992 10.9832 93.9833 13.5762 94.1544 17.9434C94.2912 21.4918 93.1623 24.6307 90.9728 27.3944C88.5781 30.4309 85.8071 33.0581 82.7966 35.4464C82.0782 36.0264 81.2913 36.5041 80.3676 36.7771C79.7519 36.9818 79.2729 36.8112 78.794 36.3676C78.144 35.7535 77.9387 34.9346 77.6992 34.1499C77.6308 33.9793 77.6992 33.7746 77.7677 33.604C78.9308 30.9086 79.3755 28.0085 80.3676 25.279C81.394 22.4471 82.3861 19.6153 83.3782 16.7834ZM82.3176 28.145C81.8729 29.6462 81.5308 31.1474 81.0519 32.8534C81.394 32.6487 81.5308 32.5804 81.6334 32.4781C84.5755 30.1239 87.2439 27.4967 89.4676 24.4601C91.1781 22.1059 92.2044 19.5129 92.0676 16.5104C91.9649 14.9069 91.5544 14.1562 90.4597 13.8151C89.365 13.508 88.2702 13.6445 87.1755 13.9174C87.0387 13.9515 86.936 14.0539 86.9702 14.2245C87.2439 15.248 86.6281 16.0669 86.3202 16.954C84.9518 20.6729 83.4808 24.3578 82.3176 28.145Z" fill="#FFF9DE"></path>
  <path d="M71.3268 20.98C71.361 20.4682 71.5662 19.9223 71.2241 19.3764C70.711 21.6624 70.1978 23.9484 69.6847 26.2343C69.0005 29.4074 68.3847 32.5804 68.0768 35.8217C68.0426 36.2653 67.8373 36.5041 67.3584 36.4359C65.6137 36.1288 64.9637 35.617 65.2373 33.8428C65.7505 30.4651 66.4005 27.1214 67.1531 23.7778C67.7347 21.1506 68.4189 18.5235 69.0689 15.8963C69.2057 15.4186 69.2742 15.0092 69.0347 14.5315C68.7952 14.0198 68.9663 13.7127 69.5478 13.6103C71.2584 13.3033 73.2426 13.7809 73.7557 14.941C74.132 15.7598 74.2004 16.6128 74.1662 17.4658C74.0978 20.8435 73.9268 24.2213 73.8241 27.5991C73.7899 28.9979 73.8241 30.3627 73.9268 31.7275C74.5768 28.8615 75.2267 25.9614 75.911 23.0954C76.8004 19.3423 78.0662 15.7598 79.6741 12.2797C79.8451 11.9385 79.982 11.5973 79.3662 11.5632C79.1267 11.5632 79.1609 11.3585 79.1267 11.1879C79.0925 10.9491 79.1951 10.8126 79.4346 10.7785C80.3925 10.6079 81.3162 10.4032 82.3083 10.5738C82.9925 10.7102 83.232 11.1879 82.9241 11.8362C81.3504 15.3504 79.7767 18.8646 78.8873 22.5836C78.5109 24.1531 78.203 25.6884 77.8267 27.2579C77.2794 29.6121 76.732 31.9663 76.1162 34.2864C75.911 35.1052 75.0215 35.5147 74.2346 35.2417C73.5162 35.0029 72.832 34.6958 72.1136 34.457C71.8741 34.3546 71.7715 34.2181 71.6689 33.9793C70.882 32.171 70.882 30.2603 70.9505 28.3497C71.0531 25.8931 71.2241 23.4366 71.3268 20.98Z" fill="#FFF9DE"></path>
  <path d="M65.189 13.0303C65.6337 13.5421 65.839 14.1562 65.8048 14.9069C65.2916 17.0222 64.7442 19.1717 64.2653 21.3212C63.3416 25.4837 62.589 29.6462 62.2469 33.9111C62.1785 34.7299 62.0416 35.5488 61.939 36.3676C61.8706 36.777 61.5969 36.9135 61.1864 36.9476C60.1601 36.9818 59.3048 36.0947 59.339 35.1052C59.4416 33.1605 59.7153 31.2498 59.989 29.3391C60.0574 28.8615 59.9206 28.7591 59.4416 28.8956C57.7653 29.4415 56.2601 30.3968 54.618 31.0451C54.4127 31.1133 54.3785 31.3521 54.3101 31.5227C53.8654 32.5122 53.4548 33.5358 53.0443 34.5593C52.7022 35.3099 52.0864 35.4464 51.368 35.2076C50.6838 35.0029 50.1022 34.5252 49.5891 33.9793C49.4864 33.8428 49.3838 33.6722 49.5207 33.5016C49.6233 33.331 49.7943 33.3652 49.9312 33.4334C50.2049 33.5358 50.3759 33.4675 50.4785 33.1946C51.0601 31.7616 51.6417 30.3627 52.1206 28.8615C52.4285 27.9403 53.0443 27.0191 53.489 26.0637C54.6864 23.5389 56.1574 21.1847 57.5943 18.8305C58.8601 16.8175 60.2285 14.9069 61.2548 12.7915C61.3916 12.5185 61.6311 12.2797 61.4943 11.9044C61.4258 11.7338 61.5969 11.6314 61.7679 11.5973C62.8969 11.2903 64.0942 11.222 64.7442 12.5868C64.8469 12.7574 65.0521 12.8597 65.189 13.0303ZM61.5627 20.4682C61.7679 19.4105 62.1443 18.387 62.2127 17.1246C59.6469 20.3659 57.8338 23.8119 56.0206 27.4285C56.2601 27.3944 56.3285 27.3944 56.3969 27.3602C57.7311 27.0532 58.9627 26.2343 60.3653 26.132C60.5364 26.132 60.5364 25.9614 60.5364 25.8249C60.8785 24.0507 61.2548 22.2424 61.5627 20.4682Z" fill="#FFF9DE"></path>
  <path d="M43.6613 29.9874C43.3192 30.2945 42.8061 30.4309 42.5324 30.9427C43.2166 31.1474 43.8324 31.318 44.4482 31.4545C46.6376 31.9322 48.7929 32.5463 50.9139 33.2969C51.6665 33.5699 52.5218 35.4464 52.2481 36.197C52.1113 36.6065 51.8034 36.6747 51.4955 36.5041C49.4087 35.4123 47.185 34.8323 44.9271 34.3887C43.4903 34.0817 42.0192 33.9111 40.5824 33.604C40.2745 33.5358 40.1377 33.7405 40.1035 34.0134C40.0008 34.457 39.8982 34.9005 39.864 35.3441C39.7614 35.9582 39.3851 36.0947 38.8719 35.9923C37.7772 35.7194 37.2298 34.7982 36.6824 33.9452C36.5456 33.7405 36.7167 33.5699 36.8535 33.3652C37.2298 32.8534 37.5377 32.3416 36.8193 31.8298C36.614 31.6933 36.5114 31.4545 36.7851 31.318C37.8456 30.7721 37.8456 29.6803 38.0851 28.7591C39.0429 24.9037 40.3087 21.1506 41.6087 17.3634C41.7114 17.0563 41.814 16.7152 41.9508 16.3057C41.335 16.6128 41.2666 17.1587 41.0271 17.6364C40.514 18.5917 40.0693 18.7623 39.1114 18.1823C38.7008 17.9776 37.7772 17.9093 38.1877 17.1928C38.6666 16.3398 38.9403 15.3845 39.6929 14.668C40.7193 13.7127 41.7456 12.7915 43.0456 12.2115C43.764 11.9044 43.9008 11.1538 43.3877 10.5396C43.3192 10.4032 43.1824 10.3008 43.285 10.1302C43.3877 9.95962 43.5587 9.99374 43.6955 10.0279C44.6192 10.2326 45.4745 10.5396 46.0219 11.3926C46.2271 11.7679 46.6376 11.6997 46.9455 11.7338C48.8955 12.075 50.7087 12.6209 52.0771 14.1562C53.5139 15.7257 53.856 17.4999 53.1034 19.4788C52.1455 21.9353 50.3323 23.8119 48.5534 25.6202C47.0139 27.1896 45.3376 28.5885 43.6613 29.9874ZM41.9508 26.3367C41.8824 26.5755 41.7798 26.7802 41.9166 27.0532C42.0535 26.9849 42.1903 26.9167 42.2587 26.8485C44.414 25.006 46.5692 23.1636 48.3482 20.98C49.4087 19.6835 50.5034 18.4211 50.8113 16.681C51.0508 15.3845 50.6402 14.5315 49.5113 14.0539C48.5876 13.6445 47.5955 13.5421 46.5692 13.7468C46.3297 13.8151 46.1245 13.9174 46.0219 14.1904C44.585 18.2164 43.1824 22.2424 41.9508 26.3367Z" fill="#FFF9DE"></path>
  <path d="M31.1032 29.885C31.6506 28.9638 32.2664 28.0767 32.6769 26.9167C32.0269 27.2579 31.4795 27.4967 30.9664 27.8038C30.248 28.2815 29.5295 28.2473 28.8796 27.7355C28.1953 27.2238 28.0243 26.439 28.0927 25.6202C28.1269 25.4496 28.1953 25.3131 28.4006 25.3472C28.6401 25.3472 28.7427 25.4837 28.469 25.9272C29.4953 25.4155 30.2822 25.006 31.1032 24.5966C32.2664 24.0507 33.4637 23.4366 34.6611 22.9589C35.7216 22.5154 37.3295 24.0166 37.1927 25.1766C37.0216 26.3367 36.4058 27.3261 35.9953 28.4179C34.8664 31.2498 34.0795 34.1499 33.5664 37.1182C33.4637 37.6983 33.1558 38.1759 32.5058 37.9371C31.8901 37.6983 30.9664 37.63 31.1032 36.5723C31.1716 35.7194 31.2743 34.8664 31.4111 33.9793C30.9322 34.0817 30.7611 34.3887 30.5559 34.6276C29.5638 35.6511 28.469 36.5041 26.9638 36.0264C25.3559 35.5147 24.2954 34.3546 23.8506 32.6828C23.2006 30.2603 23.5427 27.9061 24.1585 25.5519C24.9454 22.4812 26.1085 19.5811 27.819 16.9199C29.119 14.8727 30.419 12.8256 32.5743 11.4267C32.4032 11.3585 32.2664 11.3244 32.1295 11.2561C32.1637 11.222 32.198 11.1879 32.2322 11.1879C33.6348 11.0514 35.0374 10.9149 36.3716 11.5973C37.0216 11.9385 37.2953 12.4503 37.2269 13.235C37.0558 15.3845 36.6795 17.4658 35.7216 19.4105C35.0716 20.8094 34.1137 21.0483 32.9848 20.0588C32.8137 19.8882 32.6085 19.7176 32.8137 19.4105C33.7032 18.2505 33.9769 16.8516 34.2506 15.4869C34.4216 14.6339 34.5243 13.8151 34.6611 12.8256C33.9769 13.0986 33.6348 13.5421 33.2585 13.9515C30.7269 16.5787 28.9138 19.6153 27.6822 23.0271C26.6901 25.7567 25.9033 28.4862 25.9717 31.4204C25.9717 32.2392 26.1427 32.9899 26.348 33.7405C26.519 34.4228 26.9296 34.5593 27.4427 34.1158C28.9138 32.9216 30.1111 31.4886 31.1032 29.885Z" fill="#FFF9DE"></path>
  <path d="M166.217 31.0166C166.08 30.4935 166.205 29.6746 166.593 28.5601C166.981 27.4455 167.551 26.1604 168.304 24.7047C169.079 23.2489 170.003 21.6795 171.075 19.9963C172.169 18.3131 173.355 16.6299 174.633 14.9467C174.45 14.7874 174.268 14.5714 174.085 14.2984C173.903 14.0027 173.766 13.707 173.675 13.4113C173.606 13.1156 173.606 12.8313 173.675 12.5583C173.766 12.2854 173.971 12.0693 174.29 11.9101C174.769 11.7054 175.533 11.512 176.582 11.3301C177.632 11.1253 178.738 10.9661 179.901 10.8524C181.087 10.7159 182.216 10.6249 183.288 10.5794C184.382 10.5112 185.203 10.4885 185.751 10.5112C186.298 10.5567 186.754 10.7728 187.119 11.1595C187.507 11.5234 187.781 11.9328 187.94 12.3877C188.123 12.8199 188.191 13.218 188.146 13.5819C188.1 13.9231 187.929 14.0709 187.632 14.0255C187.176 13.9572 186.458 13.9572 185.477 14.0255C184.496 14.0709 183.436 14.1619 182.296 14.2984C181.155 14.4121 180.015 14.5372 178.875 14.6737C177.757 14.8102 176.822 14.9353 176.069 15.049C175.91 15.4812 175.91 15.7883 176.069 15.9702C176.229 16.1522 176.4 16.3 176.582 16.4138C176.765 16.5048 176.902 16.6185 176.993 16.755C177.107 16.8687 177.027 17.0734 176.754 17.3691C176.594 17.5511 176.366 17.8695 176.069 18.3244C175.796 18.7793 175.465 19.3366 175.077 19.9963C175.921 19.7915 176.754 19.6323 177.575 19.5186C178.396 19.3821 179.148 19.2798 179.832 19.2115C180.539 19.1433 181.155 19.1092 181.68 19.1092C182.204 19.1092 182.604 19.1433 182.877 19.2115C183.196 19.3025 183.436 19.5527 183.596 19.9621C183.755 20.3488 183.846 20.7696 183.869 21.2245C183.892 21.6567 183.835 22.0434 183.698 22.3846C183.584 22.703 183.413 22.8281 183.185 22.7599C182.41 22.6007 181.543 22.5324 180.585 22.5552C179.65 22.5552 178.715 22.612 177.78 22.7258C176.845 22.8395 175.955 22.976 175.111 23.1352C174.29 23.2944 173.606 23.4423 173.059 23.5787C172.648 24.3294 172.249 25.1027 171.861 25.8988C171.497 26.6722 171.143 27.4455 170.801 28.2189C170.482 28.9923 170.197 29.7315 169.946 30.4366C169.718 31.1418 169.535 31.7786 169.398 32.3473C170.128 32.279 170.995 32.1767 171.998 32.0402C173.002 31.9265 174.005 31.8241 175.009 31.7331C176.012 31.6422 176.959 31.5853 177.848 31.5625C178.738 31.5171 179.422 31.5512 179.901 31.6649C180.471 31.8014 180.939 32.0857 181.304 32.5179C181.668 32.9728 181.919 33.4163 182.056 33.8485C182.193 34.3034 182.193 34.6787 182.056 34.9744C181.919 35.2929 181.634 35.3839 181.201 35.2474C180.904 35.1564 180.437 35.0995 179.798 35.0768C179.16 35.054 178.43 35.054 177.609 35.0768C176.788 35.1223 175.921 35.1792 175.009 35.2474C174.097 35.3156 173.218 35.3952 172.375 35.4862C171.531 35.5772 170.767 35.6682 170.083 35.7592C169.398 35.8502 168.885 35.9298 168.543 35.998C168.292 36.0662 168.053 35.9639 167.825 35.6909C167.619 35.4407 167.448 35.1223 167.311 34.7356C167.197 34.3717 167.14 33.985 167.14 33.5756C167.14 33.1661 167.232 32.8477 167.414 32.6202C167.14 32.3928 166.89 32.1426 166.661 31.8696C166.456 31.6194 166.308 31.3351 166.217 31.0166Z" fill="#FFF9DE"></path>
</svg>