<svg width="134" height="73" viewBox="0 0 134 73" fill="none" xmlns="http://www.w3.org/2000/svg">
<path d="M81.5471 0.589996H51.5779C47.9796 0.589996 45.0625 3.43922 45.0625 6.95391V36.2261C45.0625 39.7408 47.9796 42.59 51.5779 42.59H81.5471C85.1454 42.59 88.0625 39.7408 88.0625 36.2261V6.95391C88.0625 3.43922 85.1454 0.589996 81.5471 0.589996Z" fill="#212A33"/>
<path d="M72.6944 14.7333L68.9708 28.0985H66.2687L63.4478 19.2377L60.6269 28.0985H57.9426L54.1832 14.7333H57.1109L59.4123 23.1909L62.1027 14.7333H64.8107L67.5487 23.2548L69.7997 14.7333H72.6944ZM81.2969 14.7333V22.9848C81.2969 22.9964 81.3564 24.1161 80.617 24.8846C80.1359 25.3834 79.4142 25.6357 78.4701 25.6357C77.5259 25.6357 76.8043 25.3834 76.3232 24.8846C75.5838 24.1161 75.6433 22.9964 75.6433 22.9848V14.7333H74.4287L72.6947 20.9576V22.892C72.6947 24.5394 73.2412 25.9346 74.2745 26.9295C75.3077 27.9213 76.7569 28.4463 78.4704 28.4463C80.1838 28.4463 81.6328 27.9213 82.6663 26.9295C83.6996 25.9376 84.2461 24.5394 84.2461 22.892V14.733L81.2969 14.7333Z" fill="#FFDD00"/>
<path d="M52.6386 28.0985L48.8792 14.7333H49.8383L53.6005 28.0985H52.6386ZM56.2525 28.0985L52.4931 14.7333H51.534L55.2903 28.0985H56.2525Z" fill="white"/>
<path d="M3.0705 57.71C3.31583 58.8087 3.56117 59.9233 3.8065 61.054C4.05183 62.1847 4.29183 63.3047 4.5265 64.414C4.77183 63.3047 5.01717 62.1847 5.2625 61.054C5.5185 59.9233 5.76383 58.8087 5.9985 57.71C6.4145 57.71 6.83583 57.71 7.2625 57.71C7.68917 57.71 8.1105 57.71 8.5265 57.71C8.7825 58.8087 9.0385 59.918 9.2945 61.038C9.5505 62.158 9.8065 63.2727 10.0625 64.382C10.3078 63.2727 10.5478 62.158 10.7825 61.038C11.0278 59.918 11.2678 58.8087 11.5025 57.71C11.9292 57.71 12.3558 57.71 12.7825 57.71C13.2198 57.71 13.6518 57.71 14.0785 57.71C13.6838 59.502 13.2892 61.3153 12.8945 63.15C12.4998 64.9847 12.1052 66.798 11.7105 68.59C11.1878 68.59 10.6545 68.59 10.1105 68.59C9.57717 68.59 9.04383 68.59 8.5105 68.59C8.2865 67.598 8.05717 66.6007 7.8225 65.598C7.58783 64.5847 7.3585 63.582 7.1345 62.59C6.92117 63.582 6.7025 64.5847 6.4785 65.598C6.2545 66.6007 6.03583 67.598 5.8225 68.59C5.29983 68.59 4.77183 68.59 4.2385 68.59C3.71583 68.59 3.19317 68.59 2.6705 68.59C2.27583 66.798 1.88117 64.9847 1.4865 63.15C1.09183 61.3153 0.697167 59.502 0.3025 57.71C0.761167 57.71 1.21983 57.71 1.6785 57.71C2.14783 57.71 2.61183 57.71 3.0705 57.71ZM16.1525 68.59C16.1525 66.798 16.1525 64.9847 16.1525 63.15C16.1525 61.3153 16.1525 59.502 16.1525 57.71C17.2298 57.71 18.3178 57.71 19.4165 57.71C20.5152 57.71 21.6032 57.71 22.6805 57.71C22.6805 58.1153 22.6805 58.5313 22.6805 58.958C22.6805 59.3847 22.6805 59.8007 22.6805 60.206C22.0618 60.206 21.4378 60.206 20.8085 60.206C20.1898 60.206 19.5712 60.206 18.9525 60.206C18.9525 60.4727 18.9525 60.7393 18.9525 61.006C18.9525 61.262 18.9525 61.5233 18.9525 61.79C19.5178 61.79 20.0885 61.79 20.6645 61.79C21.2405 61.79 21.8058 61.79 22.3605 61.79C22.3605 62.1847 22.3605 62.5847 22.3605 62.99C22.3605 63.3953 22.3605 63.8007 22.3605 64.206C21.8058 64.206 21.2405 64.206 20.6645 64.206C20.0885 64.206 19.5178 64.206 18.9525 64.206C18.9525 64.5153 18.9525 64.83 18.9525 65.15C18.9525 65.47 18.9525 65.7847 18.9525 66.094C19.5712 66.094 20.1898 66.094 20.8085 66.094C21.4378 66.094 22.0618 66.094 22.6805 66.094C22.6805 66.4993 22.6805 66.9153 22.6805 67.342C22.6805 67.7687 22.6805 68.1847 22.6805 68.59C21.6032 68.59 20.5152 68.59 19.4165 68.59C18.3178 68.59 17.2298 68.59 16.1525 68.59ZM32.5576 65.31C32.5576 66.1207 32.3443 66.782 31.9176 67.294C31.5016 67.7953 30.9363 68.158 30.2216 68.382C29.5176 68.606 28.7283 68.702 27.8536 68.67C26.979 68.6487 26.0883 68.5153 25.1816 68.27C25.1816 67.8113 25.1816 67.3527 25.1816 66.894C25.1816 66.4353 25.1816 65.9767 25.1816 65.518C26.0136 65.8167 26.771 66.0033 27.4536 66.078C28.1363 66.1527 28.6803 66.126 29.0856 65.998C29.491 65.8593 29.6936 65.63 29.6936 65.31C29.6936 65.086 29.5816 64.9047 29.3576 64.766C29.1336 64.6167 28.8403 64.4833 28.4776 64.366C28.1256 64.2487 27.7523 64.1153 27.3576 63.966C26.963 63.806 26.5843 63.6087 26.2216 63.374C25.8696 63.1287 25.5816 62.814 25.3576 62.43C25.1336 62.0353 25.0216 61.5447 25.0216 60.958C25.0216 60.2327 25.2136 59.6193 25.5976 59.118C25.9816 58.6167 26.499 58.238 27.1496 57.982C27.811 57.726 28.5576 57.598 29.3896 57.598C30.2323 57.598 31.1016 57.726 31.9976 57.982C31.9976 58.4407 31.9976 58.8993 31.9976 59.358C31.9976 59.8167 31.9976 60.2753 31.9976 60.734C31.251 60.414 30.563 60.222 29.9336 60.158C29.315 60.0833 28.819 60.1153 28.4456 60.254C28.0723 60.382 27.8856 60.5953 27.8856 60.894C27.8856 61.1073 27.9976 61.2833 28.2216 61.422C28.4456 61.5607 28.7336 61.6887 29.0856 61.806C29.4483 61.9127 29.827 62.046 30.2216 62.206C30.6163 62.3553 30.9896 62.558 31.3416 62.814C31.7043 63.0593 31.9976 63.3847 32.2216 63.79C32.4456 64.1847 32.5576 64.6913 32.5576 65.31ZM36.719 68.59C36.719 67.214 36.719 65.8273 36.719 64.43C36.719 63.022 36.719 61.63 36.719 60.254C36.3137 60.254 35.903 60.254 35.487 60.254C35.071 60.254 34.6603 60.254 34.255 60.254C34.255 59.838 34.255 59.4167 34.255 58.99C34.255 58.5527 34.255 58.126 34.255 57.71C35.5243 57.71 36.8097 57.71 38.111 57.71C39.4123 57.71 40.6977 57.71 41.967 57.71C41.967 58.126 41.967 58.5527 41.967 58.99C41.967 59.4167 41.967 59.838 41.967 60.254C41.5723 60.254 41.167 60.254 40.751 60.254C40.335 60.254 39.9243 60.254 39.519 60.254C39.519 61.63 39.519 63.022 39.519 64.43C39.519 65.8273 39.519 67.214 39.519 68.59C39.0603 68.59 38.5963 68.59 38.127 68.59C37.6577 68.59 37.1883 68.59 36.719 68.59ZM44.2869 68.59C44.2869 66.798 44.2869 64.9847 44.2869 63.15C44.2869 61.3153 44.2869 59.502 44.2869 57.71C45.3642 57.71 46.4522 57.71 47.5509 57.71C48.6495 57.71 49.7375 57.71 50.8149 57.71C50.8149 58.1153 50.8149 58.5313 50.8149 58.958C50.8149 59.3847 50.8149 59.8007 50.8149 60.206C50.1962 60.206 49.5722 60.206 48.9429 60.206C48.3242 60.206 47.7055 60.206 47.0869 60.206C47.0869 60.4727 47.0869 60.7393 47.0869 61.006C47.0869 61.262 47.0869 61.5233 47.0869 61.79C47.6522 61.79 48.2229 61.79 48.7989 61.79C49.3749 61.79 49.9402 61.79 50.4949 61.79C50.4949 62.1847 50.4949 62.5847 50.4949 62.99C50.4949 63.3953 50.4949 63.8007 50.4949 64.206C49.9402 64.206 49.3749 64.206 48.7989 64.206C48.2229 64.206 47.6522 64.206 47.0869 64.206C47.0869 64.5153 47.0869 64.83 47.0869 65.15C47.0869 65.47 47.0869 65.7847 47.0869 66.094C47.7055 66.094 48.3242 66.094 48.9429 66.094C49.5722 66.094 50.1962 66.094 50.8149 66.094C50.8149 66.4993 50.8149 66.9153 50.8149 67.342C50.8149 67.7687 50.8149 68.1847 50.8149 68.59C49.7375 68.59 48.6495 68.59 47.5509 68.59C46.4522 68.59 45.3642 68.59 44.2869 68.59ZM53.54 68.59C53.54 66.798 53.54 64.9847 53.54 63.15C53.54 61.3153 53.54 59.502 53.54 57.71C54.18 57.71 54.82 57.71 55.46 57.71C56.1107 57.71 56.756 57.71 57.396 57.71C58.2067 57.71 58.916 57.8647 59.524 58.174C60.132 58.4727 60.6013 58.8993 60.932 59.454C61.2733 59.998 61.444 60.638 61.444 61.374C61.444 62.0033 61.316 62.5633 61.06 63.054C60.804 63.5447 60.4573 63.9447 60.02 64.254C60.4467 64.9687 60.8733 65.694 61.3 66.43C61.7373 67.1553 62.1693 67.8753 62.596 68.59C62.0733 68.59 61.5507 68.59 61.028 68.59C60.5053 68.59 59.9827 68.59 59.46 68.59C59.1293 67.9927 58.7933 67.3847 58.452 66.766C58.1213 66.1473 57.7853 65.5393 57.444 64.942C57.2627 64.942 57.076 64.942 56.884 64.942C56.7027 64.942 56.5213 64.942 56.34 64.942C56.34 65.5393 56.34 66.1473 56.34 66.766C56.34 67.3847 56.34 67.9927 56.34 68.59C55.8813 68.59 55.4173 68.59 54.948 68.59C54.4787 68.59 54.0093 68.59 53.54 68.59ZM57.396 60.238C57.2253 60.238 57.0493 60.238 56.868 60.238C56.6973 60.238 56.5213 60.238 56.34 60.238C56.34 60.6327 56.34 61.0273 56.34 61.422C56.34 61.8167 56.34 62.2113 56.34 62.606C56.5427 62.606 56.7453 62.606 56.948 62.606C57.1507 62.606 57.3533 62.606 57.556 62.606C57.876 62.606 58.1373 62.494 58.34 62.27C58.5427 62.0353 58.644 61.7527 58.644 61.422C58.644 61.0807 58.532 60.798 58.308 60.574C58.0947 60.35 57.7907 60.238 57.396 60.238ZM64.3556 68.59C64.3556 66.798 64.3556 64.9847 64.3556 63.15C64.3556 61.3153 64.3556 59.502 64.3556 57.71C64.825 57.71 65.2943 57.71 65.7636 57.71C66.2436 57.71 66.713 57.71 67.1716 57.71C67.737 58.7233 68.3076 59.7473 68.8836 60.782C69.4703 61.8167 70.0463 62.8407 70.6116 63.854C70.6116 62.8407 70.6116 61.8167 70.6116 60.782C70.6116 59.7473 70.6116 58.7233 70.6116 57.71C71.0703 57.71 71.529 57.71 71.9876 57.71C72.4463 57.71 72.905 57.71 73.3636 57.71C73.3636 59.502 73.3636 61.3153 73.3636 63.15C73.3636 64.9847 73.3636 66.798 73.3636 68.59C72.905 68.59 72.4356 68.59 71.9556 68.59C71.4863 68.59 71.017 68.59 70.5476 68.59C69.9823 67.5767 69.4063 66.5527 68.8196 65.518C68.2436 64.4833 67.673 63.4593 67.1076 62.446C67.1076 63.4593 67.1076 64.4833 67.1076 65.518C67.1076 66.5527 67.1076 67.5767 67.1076 68.59C66.649 68.59 66.1903 68.59 65.7316 68.59C65.273 68.59 64.8143 68.59 64.3556 68.59ZM89.2568 64.462C89.2568 65.134 89.1394 65.742 88.9048 66.286C88.6808 66.8193 88.3608 67.278 87.9448 67.662C87.5394 68.046 87.0594 68.3393 86.5048 68.542C85.9608 68.7447 85.3688 68.846 84.7288 68.846C84.0781 68.846 83.4808 68.7447 82.9368 68.542C82.3928 68.3393 81.9181 68.0513 81.5128 67.678C81.1181 67.294 80.8088 66.8353 80.5848 66.302C80.3608 65.7687 80.2488 65.166 80.2488 64.494C80.2488 63.374 80.2488 62.2433 80.2488 61.102C80.2488 59.9607 80.2488 58.83 80.2488 57.71C80.7181 57.71 81.1874 57.71 81.6568 57.71C82.1261 57.71 82.5901 57.71 83.0488 57.71C83.0488 58.8087 83.0488 59.9127 83.0488 61.022C83.0488 62.1313 83.0488 63.2353 83.0488 64.334C83.0488 64.91 83.2088 65.374 83.5288 65.726C83.8488 66.078 84.2594 66.254 84.7608 66.254C85.2621 66.254 85.6674 66.078 85.9768 65.726C86.2968 65.374 86.4568 64.91 86.4568 64.334C86.4568 63.2353 86.4568 62.1313 86.4568 61.022C86.4568 59.9127 86.4568 58.8087 86.4568 57.71C86.9261 57.71 87.3954 57.71 87.8648 57.71C88.3341 57.71 88.7981 57.71 89.2568 57.71C89.2568 58.8193 89.2568 59.9447 89.2568 61.086C89.2568 62.2273 89.2568 63.3527 89.2568 64.462ZM91.9744 68.59C91.9744 66.798 91.9744 64.9847 91.9744 63.15C91.9744 61.3153 91.9744 59.502 91.9744 57.71C92.4437 57.71 92.913 57.71 93.3824 57.71C93.8624 57.71 94.3317 57.71 94.7904 57.71C95.3557 58.7233 95.9264 59.7473 96.5024 60.782C97.089 61.8167 97.665 62.8407 98.2304 63.854C98.2304 62.8407 98.2304 61.8167 98.2304 60.782C98.2304 59.7473 98.2304 58.7233 98.2304 57.71C98.689 57.71 99.1477 57.71 99.6064 57.71C100.065 57.71 100.524 57.71 100.982 57.71C100.982 59.502 100.982 61.3153 100.982 63.15C100.982 64.9847 100.982 66.798 100.982 68.59C100.524 68.59 100.054 68.59 99.5744 68.59C99.105 68.59 98.6357 68.59 98.1664 68.59C97.601 67.5767 97.025 66.5527 96.4384 65.518C95.8624 64.4833 95.2917 63.4593 94.7264 62.446C94.7264 63.4593 94.7264 64.4833 94.7264 65.518C94.7264 66.5527 94.7264 67.5767 94.7264 68.59C94.2677 68.59 93.809 68.59 93.3504 68.59C92.8917 68.59 92.433 68.59 91.9744 68.59ZM103.948 68.59C103.948 66.798 103.948 64.9847 103.948 63.15C103.948 61.3153 103.948 59.502 103.948 57.71C104.417 57.71 104.887 57.71 105.356 57.71C105.825 57.71 106.289 57.71 106.748 57.71C106.748 59.502 106.748 61.3153 106.748 63.15C106.748 64.9847 106.748 66.798 106.748 68.59C106.289 68.59 105.825 68.59 105.356 68.59C104.887 68.59 104.417 68.59 103.948 68.59ZM114.563 68.846C113.784 68.846 113.064 68.7073 112.403 68.43C111.742 68.142 111.171 67.742 110.691 67.23C110.211 66.718 109.838 66.1153 109.571 65.422C109.304 64.718 109.171 63.9553 109.171 63.134C109.171 62.3127 109.304 61.5553 109.571 60.862C109.838 60.1687 110.211 59.5713 110.691 59.07C111.171 58.558 111.742 58.1633 112.403 57.886C113.064 57.598 113.784 57.454 114.563 57.454C115.342 57.454 116.056 57.598 116.707 57.886C117.368 58.1633 117.939 58.558 118.419 59.07C118.91 59.5713 119.288 60.1687 119.555 60.862C119.822 61.5553 119.955 62.3127 119.955 63.134C119.955 63.9553 119.822 64.718 119.555 65.422C119.288 66.1153 118.91 66.718 118.419 67.23C117.939 67.742 117.368 68.142 116.707 68.43C116.056 68.7073 115.342 68.846 114.563 68.846ZM114.563 66.254C115.086 66.254 115.534 66.126 115.907 65.87C116.28 65.6033 116.568 65.2353 116.771 64.766C116.984 64.2967 117.091 63.7527 117.091 63.134C117.091 62.5153 116.984 61.9767 116.771 61.518C116.568 61.0593 116.28 60.702 115.907 60.446C115.534 60.1793 115.086 60.046 114.563 60.046C114.051 60.046 113.603 60.174 113.219 60.43C112.846 60.686 112.552 61.0487 112.339 61.518C112.136 61.9767 112.035 62.5153 112.035 63.134C112.035 63.7527 112.136 64.2967 112.339 64.766C112.552 65.2353 112.846 65.6033 113.219 65.87C113.603 66.126 114.051 66.254 114.563 66.254ZM122.296 68.59C122.296 66.798 122.296 64.9847 122.296 63.15C122.296 61.3153 122.296 59.502 122.296 57.71C122.766 57.71 123.235 57.71 123.704 57.71C124.184 57.71 124.654 57.71 125.112 57.71C125.678 58.7233 126.248 59.7473 126.824 60.782C127.411 61.8167 127.987 62.8407 128.552 63.854C128.552 62.8407 128.552 61.8167 128.552 60.782C128.552 59.7473 128.552 58.7233 128.552 57.71C129.011 57.71 129.47 57.71 129.928 57.71C130.387 57.71 130.846 57.71 131.304 57.71C131.304 59.502 131.304 61.3153 131.304 63.15C131.304 64.9847 131.304 66.798 131.304 68.59C130.846 68.59 130.376 68.59 129.896 68.59C129.427 68.59 128.958 68.59 128.488 68.59C127.923 67.5767 127.347 66.5527 126.76 65.518C126.184 64.4833 125.614 63.4593 125.048 62.446C125.048 63.4593 125.048 64.4833 125.048 65.518C125.048 66.5527 125.048 67.5767 125.048 68.59C124.59 68.59 124.131 68.59 123.672 68.59C123.214 68.59 122.755 68.59 122.296 68.59Z" fill="#0B333C"/>
</svg>
