<svg width="27" height="27" viewBox="0 0 18 18" fill="none"
  xmlns="http://www.w3.org/2000/svg">
  <path d="M16.836 8.84502C16.836 13.1573 13.3403 16.653 9.02802 16.653C4.71577 16.653 1.22 13.1573 1.22 8.84502C1.22 4.53277 4.71577 1.037 9.02802 1.037C13.3403 1.037 16.836 4.53277 16.836 8.84502Z" fill="#EFE3AF"/>
  <path d="M8.09096 10.4186L10.5688 9.19251H10.5694C10.67 9.13822 10.5657 8.99426 10.4663 8.93753L8.09401 7.64677C7.99702 7.59126 7.66396 7.66202 7.66396 7.77365V10.2905C7.66396 10.4009 7.99397 10.4711 8.09096 10.4186Z" fill="#FF4400"/>
  <path fill-rule="evenodd" clip-rule="evenodd" d="M17.998 8.81309C18.1012 13.7826 14.1564 17.8948 9.18691 17.998C4.21744 18.1012 0.105208 14.1564 0.00198057 9.18691C-0.101247 4.21744 3.84362 0.105208 8.81309 0.00198057C13.7826 -0.101247 17.8948 3.84362 17.998 8.81309ZM11.6576 5.55263C12.8514 5.55263 13.8189 6.5201 13.8189 7.71387V10.2856C13.8189 11.4794 12.8514 12.4469 11.6576 12.4469H6.13163C4.93786 12.4469 3.9704 11.4794 3.9704 10.2856V7.71387C3.9704 6.5201 4.93786 5.55263 6.13163 5.55263H11.6576Z" fill="#FF4400"/>
</svg>
